<svg width="48" height="48" viewBox="0 0 48 48" fill="none" xmlns="http://www.w3.org/2000/svg">
<path d="M21.0957 42.388C21.0957 41.7013 21.6794 41.1396 22.3928 41.1396C23.1062 41.1396 23.69 41.7013 23.69 42.388C23.69 43.0746 23.1062 43.6363 22.3928 43.6363C21.6794 43.6363 21.0957 43.1058 21.0957 42.388ZM21.0957 5.24839C21.0957 4.56177 21.6794 4 22.3928 4C23.1062 4 23.69 4.56177 23.69 5.24839C23.69 5.935 23.1062 6.49678 22.3928 6.49678C21.6794 6.49678 21.0957 5.96621 21.0957 5.24839ZM14.6101 11.4903C14.6101 10.8037 15.1938 10.2419 15.9072 10.2419C16.6206 10.2419 17.2043 10.8037 17.2043 11.4903C17.2043 12.1769 16.6206 12.7387 15.9072 12.7387C15.1938 12.7387 14.6101 12.2082 14.6101 11.4903ZM15.1613 17.7323C15.1613 17.3265 15.4856 17.0145 15.9072 17.0145C16.3288 17.0145 16.653 17.3265 16.653 17.7323C16.653 18.138 16.3288 18.4501 15.9072 18.4501C15.4856 18.4501 15.1613 18.138 15.1613 17.7323ZM9 17.7323C9 17.5138 9.19457 17.3265 9.42157 17.3265C9.64856 17.3265 9.84313 17.5138 9.84313 17.7323C9.84313 17.9507 9.64856 18.138 9.42157 18.138C9.19457 18.138 9 17.982 9 17.7323ZM9 23.5685C9 23.35 9.19457 23.1628 9.42157 23.1628C9.64856 23.1628 9.84313 23.35 9.84313 23.5685C9.84313 23.787 9.64856 23.9742 9.42157 23.9742C9.19457 23.9742 9 23.787 9 23.5685ZM9 30.2162C9 29.9977 9.19457 29.8104 9.42157 29.8104C9.64856 29.8104 9.84313 29.9977 9.84313 30.2162C9.84313 30.4346 9.64856 30.6219 9.42157 30.6219C9.19457 30.6219 9 30.4658 9 30.2162ZM15.1613 23.5685C15.1613 23.1628 15.4856 22.8507 15.9072 22.8507C16.3288 22.8507 16.653 23.1628 16.653 23.5685C16.653 23.9742 16.3288 24.2863 15.9072 24.2863C15.4856 24.2863 15.1613 23.9742 15.1613 23.5685ZM15.1613 30.2162C15.1613 29.8104 15.4856 29.4983 15.9072 29.4983C16.3288 29.4983 16.653 29.8104 16.653 30.2162C16.653 30.6219 16.3288 30.934 15.9072 30.934C15.4856 30.934 15.1613 30.6219 15.1613 30.2162ZM14.6101 36.4581C14.6101 35.7715 15.1938 35.2097 15.9072 35.2097C16.6206 35.2097 17.2043 35.7715 17.2043 36.4581C17.2043 37.1447 16.6206 37.7065 15.9072 37.7065C15.1938 37.7065 14.6101 37.1759 14.6101 36.4581ZM20.2201 11.1782C20.2201 9.92985 21.2254 9.08718 22.3928 9.08718C23.69 9.08718 24.5655 10.0547 24.5655 11.1782C24.5655 12.3018 23.5602 13.2693 22.3928 13.2693C21.0957 13.2693 20.2201 12.3018 20.2201 11.1782ZM27.3543 11.4903C27.3543 10.2419 28.3596 9.39928 29.527 9.39928C30.8241 9.39928 31.6997 10.3668 31.6997 11.4903C31.6997 12.6139 30.6944 13.5814 29.527 13.5814C28.2299 13.5814 27.3543 12.6139 27.3543 11.4903ZM27.3543 36.4581C27.3543 35.2097 28.3596 34.3671 29.527 34.3671C30.8241 34.3671 31.6997 35.3346 31.6997 36.4581C31.6997 37.5817 30.6944 38.5492 29.527 38.5492C28.2299 38.5492 27.3543 37.5817 27.3543 36.4581ZM27.3543 23.6621C27.3543 22.4137 28.3596 21.5711 29.527 21.5711C30.8241 21.5711 31.6997 22.5386 31.6997 23.6621C31.6997 24.7857 30.6944 25.7532 29.527 25.7532C28.2299 25.7532 27.3543 24.7857 27.3543 23.6621ZM20.2201 36.146C20.2201 34.8976 21.2254 34.055 22.3928 34.055C23.69 34.055 24.5655 35.0225 24.5655 36.146C24.5655 37.2696 23.5602 38.2371 22.3928 38.2371C21.0957 38.2371 20.2201 37.2696 20.2201 36.146ZM19.831 17.1081C19.831 15.61 21.0308 14.6425 22.3928 14.6425C23.9494 14.6425 24.9546 15.7973 24.9546 17.1081C24.9546 18.4189 23.7548 19.5736 22.3928 19.5736C20.8363 19.6049 19.831 18.4501 19.831 17.1081ZM19.831 30.2162C19.831 28.7181 21.0308 27.7506 22.3928 27.7506C23.9494 27.7506 24.9546 28.9054 24.9546 30.2162C24.9546 31.527 23.7548 32.6817 22.3928 32.6817C20.8363 32.7129 19.831 31.5582 19.831 30.2162ZM33.0293 18.6374C32.3158 17.3578 32.8023 15.8597 34.0994 15.1419C35.4289 14.4553 36.9855 14.9234 37.7313 16.1718C38.4448 17.4514 37.9583 18.9495 36.6612 19.6673C36.3045 19.8857 35.8181 20.0106 35.4614 20.0106C34.4561 20.0418 33.4833 19.4488 33.0293 18.6374ZM19.7661 24.9105C18.9554 23.4749 19.5067 21.7895 20.9984 21.0093C22.4901 20.2291 24.2412 20.7596 25.0519 22.1953C25.8626 23.6309 25.3114 25.3162 23.8197 26.0965C23.3981 26.3462 22.8792 26.5022 22.4577 26.5022C21.3876 26.471 20.285 25.8468 19.7661 24.9105ZM32.5428 31.3709C31.6673 29.8416 32.251 28.0315 33.84 27.1888C35.4289 26.3462 37.3098 26.9079 38.1853 28.4372C39.0609 29.9665 38.4772 31.7766 36.8882 32.6193C36.4666 32.9002 35.8829 33.025 35.4289 33.025C34.294 33.025 33.1265 32.3384 32.5428 31.3709Z" fill="#FF5111"/>
</svg>
